<svg xmlns="http://www.w3.org/2000/svg" viewBox="0 0 394.76 85.98"><defs><style>.cls-1{isolation:isolate;}.cls-2{fill:#fff;}</style></defs><g id="Layer_2" data-name="Layer 2"><g id="Layer_1-2" data-name="Layer 1"><g class="cls-1"><path class="cls-2" d="M188.32,5.7V76h-16l0-47.48L166,76H154.61l-6.71-46.4,0,46.4h-16V5.7h23.66q1.06,6.34,2.18,15l2.59,17.89L164.53,5.7Z"/><path class="cls-2" d="M234.89,48.23H212.17V60.7q0,3.9.57,5a2.19,2.19,0,0,0,2.17,1.13,2.63,2.63,0,0,0,2.67-1.5c.45-1,.67-2.94.67-5.8V52h16.64v4.26a38.1,38.1,0,0,1-.67,8.21,16.75,16.75,0,0,1-3.15,6.13,15.32,15.32,0,0,1-6.28,4.88,24.19,24.19,0,0,1-9.53,1.63,27.74,27.74,0,0,1-9.82-1.6,15.79,15.79,0,0,1-6.63-4.41,16,16,0,0,1-3.28-6.17,39.8,39.8,0,0,1-.91-9.8V38.28q0-7.56,2-11.93a14,14,0,0,1,6.69-6.69A23.71,23.71,0,0,1,214,17.34q7.38,0,12.18,2.8A15.46,15.46,0,0,1,233,27.57q1.93,4.63,1.93,13ZM217.3,38.84V34.63a21.19,21.19,0,0,0-.48-5.78,1.89,1.89,0,0,0-2-1.3c-1.21,0-2,.37-2.25,1.11s-.44,2.73-.44,6v4.21Z"/><path class="cls-2" d="M280.51,18.38v44.4a96.33,96.33,0,0,1-.42,11.62A11.52,11.52,0,0,1,277.16,80a15.71,15.71,0,0,1-7,4.48A35.54,35.54,0,0,1,258.83,86q-8.38,0-13.47-2.85T240.1,72h17q0,3.83,2.78,3.82a2.75,2.75,0,0,0,2.65-1.17c.44-.79.66-2.42.66-4.92V65.33a16.82,16.82,0,0,1-4.76,3.1,13.57,13.57,0,0,1-5.24,1,14.53,14.53,0,0,1-7.79-1.91,9.78,9.78,0,0,1-4.2-5,27.08,27.08,0,0,1-1.13-8.84V32.76q0-8.2,3-11.81t9-3.61a13.34,13.34,0,0,1,6,1.35,14.28,14.28,0,0,1,4.84,4l1.26-4.36Zm-17.6,15.29a16.82,16.82,0,0,0-.45-5,2,2,0,0,0-2-1.09,2.2,2.2,0,0,0-2.15,1.24,12.37,12.37,0,0,0-.63,4.88V53.05a16.28,16.28,0,0,0,.47,5,1.94,1.94,0,0,0,2,1.15,2.15,2.15,0,0,0,2.26-1.39q.53-1.39.52-6.3Z"/><path class="cls-2" d="M302.44,40.71H286V36.85q0-6.69,1.54-10.32t6.19-6.41q4.65-2.78,12.08-2.78,8.91,0,13.42,3.15a12.22,12.22,0,0,1,5.43,7.73q.92,4.59.92,18.88V76H308.48V70.89a10.69,10.69,0,0,1-10.21,6.18,14.86,14.86,0,0,1-8.45-2.58Q286,71.91,286,63.17V58.44q0-6.48,2-8.82t10.12-5.48q8.66-3.37,9.26-4.56a12.25,12.25,0,0,0,.6-4.78q0-4.51-.67-5.88a2.31,2.31,0,0,0-2.24-1.37c-1.18,0-1.92.38-2.21,1.15a23.27,23.27,0,0,0-.44,6ZM308,48.62q-4.2,3.09-4.88,5.17a20.45,20.45,0,0,0-.68,6c0,3,.2,4.91.59,5.78a2.3,2.3,0,0,0,2.32,1.31,2.17,2.17,0,0,0,2.16-1c.33-.68.49-2.47.49-5.36Z"/><path class="cls-2" d="M349.67,5.7V76H331.59V5.7Z"/><path class="cls-2" d="M371.65,40.71H355.18V36.85q0-6.69,1.55-10.32t6.19-6.41q4.63-2.78,12.07-2.78,8.91,0,13.43,3.15a12.3,12.3,0,0,1,5.43,7.73q.91,4.59.91,18.88V76H377.69V70.89a10.69,10.69,0,0,1-10.21,6.18A14.84,14.84,0,0,1,359,74.49q-3.86-2.58-3.85-11.32V58.44q0-6.48,2.05-8.82t10.12-5.48q8.64-3.37,9.25-4.56a12,12,0,0,0,.61-4.78c0-3-.23-5-.67-5.88a2.32,2.32,0,0,0-2.24-1.37c-1.19,0-1.93.38-2.22,1.15a23.46,23.46,0,0,0-.43,6Zm5.56,7.91q-4.21,3.09-4.89,5.17a20.5,20.5,0,0,0-.67,6c0,3,.19,4.91.58,5.78a2.31,2.31,0,0,0,2.33,1.31,2.15,2.15,0,0,0,2.15-1c.33-.68.5-2.47.5-5.36Z"/></g><rect class="cls-2" y="2.73" width="21.06" height="71.59"/><path class="cls-2" d="M107,68.55a4.2,4.2,0,0,0-4.08,2.89l-41.56-.08v2.1l41.56.08A4.19,4.19,0,0,0,107,76.45a4,4,0,0,0,1.26-7.9,3.81,3.81,0,0,0-1.26,0Z"/><polygon class="cls-2" points="55.86 28.66 54.71 30.76 51.8 36.06 50.64 38.17 47.49 43.92 46.34 46.02 43.03 52.04 41.88 54.14 39.31 58.79 31.46 45.99 30.17 43.88 26.63 38.12 25.33 36.01 24.06 33.93 24.06 37.95 24.15 38.11 37.17 59.32 38.48 61.43 39.42 62.98 40.27 61.44 41.42 59.33 44.27 54.15 45.42 52.05 48.74 46.03 49.88 43.92 53.05 38.17 54.2 36.07 57.1 30.77 58.21 28.75 58.21 24.37 55.86 28.66"/><path class="cls-2" d="M63.35,22.12H82.69a3.94,3.94,0,1,0,0-2.11H62.14v2.11Z"/><path class="cls-2" d="M96.47,30.91a4,4,0,1,0,0-2.11l-34.34-.07v2.11Z"/><polygon class="cls-2" points="57.91 36.08 56.75 38.18 53.6 43.93 52.45 46.03 49.13 52.05 47.99 54.16 45.13 59.34 43.99 61.45 41.11 66.67 39.96 68.78 39.31 69.94 38.6 68.77 37.31 66.66 34.1 61.42 32.81 59.32 24.06 45.07 24.06 49.1 30.33 59.31 31.63 61.42 34.84 66.66 36.13 68.77 39.42 74.13 42.35 68.78 43.5 66.68 46.38 61.45 47.53 59.35 50.38 54.16 51.53 52.06 54.85 46.04 55.99 43.93 58.21 39.89 58.21 35.51 57.91 36.08"/><path class="cls-2" d="M65.43,13.91h2.4L103,14a4,4,0,1,0,0-2.11l-40.12-.05h-.7v2.08Z"/><polygon class="cls-2" points="57.84 13.92 54.5 19.99 53.35 22.09 49.75 28.65 48.6 30.75 45.68 36.05 44.53 38.15 41.38 43.9 40.21 46.01 39.31 47.65 38.31 46 37.02 43.89 33.48 38.13 32.18 36.02 24.06 22.78 24.06 26.81 29.71 36.02 31 38.13 34.55 43.89 35.84 46 39.42 51.84 42.61 46.01 43.78 43.91 46.92 38.16 48.09 36.06 50.99 30.75 52.14 28.65 55.75 22.09 56.91 19.99 58.21 17.6 58.21 13.22 57.84 13.92"/><polygon class="cls-2" points="57.78 2.87 56.63 4.97 52.88 11.8 51.73 13.91 48.39 19.97 47.24 22.07 43.63 28.63 42.49 30.74 39.57 36.04 39.31 36.5 39.03 36.04 35.78 30.72 34.48 28.61 30.44 22.04 29.15 19.93 24.06 11.64 24.06 15.66 26.67 19.93 27.97 22.03 36.56 36.03 37.85 38.14 39.42 40.69 40.81 38.15 41.98 36.04 44.88 30.74 46.05 28.64 49.64 22.08 50.8 19.98 54.13 13.91 55.28 11.81 58.21 6.45 58.21 2.87 57.78 2.87"/><path class="cls-2" d="M64.23,5H80.45a4,4,0,1,0,0-2.1H62.14V5Z"/><path class="cls-2" d="M75.32,37.33a4,4,0,1,0,0-2.1H62.14v2.11Z"/><path class="cls-2" d="M92.17,45.53a3.95,3.95,0,1,0,0-2.11l-30-.06v2.1Z"/><path class="cls-2" d="M103.83,53.39a3.94,3.94,0,1,0,0-2.11L62.09,51.2v2.1Z"/><path class="cls-2" d="M76.11,60.33a4,4,0,1,0,0-2.11h-14v2.11Z"/><path class="cls-2" d="M90.19,67.1a3.94,3.94,0,1,0,0-2.11l-28,0V67Z"/></g></g></svg>