<?xml version="1.0" encoding="utf-8"?>
<!-- Generator: Adobe Illustrator 25.2.3, SVG Export Plug-In . SVG Version: 6.00 Build 0)  -->
<svg version="1.1" id="Layer_1" xmlns="http://www.w3.org/2000/svg" xmlns:xlink="http://www.w3.org/1999/xlink" x="0px" y="0px"
	 viewBox="0 0 200 44" style="enable-background:new 0 0 200 44;" xml:space="preserve">
<style type="text/css">
	.st0{fill:#FFFFFF;}
</style>
<path class="st0" d="M0,43.9L19.7,7.6L37.1,0L17.3,36.3L0,43.9z"/>
<path class="st0" d="M19.6,35.6L34.6,8l8.5,8.3L28.3,44L19.6,35.6z"/>
<path class="st0" d="M44.7,17.2l11.1,4l-5.5,10.1l-13.4,0.5L44.7,17.2z"/>
<path class="st0" d="M76.5,34.6h-7V15.2h7c2,0,3.7,0.4,5.1,1.2c1.4,0.8,2.5,1.9,3.3,3.3c0.8,1.5,1.1,3.2,1.1,5.2s-0.4,3.8-1.2,5.2
	c-0.8,1.5-1.9,2.6-3.3,3.4C80.2,34.2,78.5,34.6,76.5,34.6z M73.7,31.1h2.6c1.8,0,3.2-0.5,4.2-1.5c1-1,1.4-2.6,1.4-4.7
	c0-2.2-0.5-3.7-1.4-4.7c-1-1-2.4-1.5-4.2-1.5h-2.6V31.1z"/>
<path class="st0" d="M89.2,34.6h-4.5l6.8-19.4h5.4l6.8,19.4h-4.5l-1.4-4.4h-7.1L89.2,34.6z M91.7,27h5l-2.4-7.3h-0.2L91.7,27z"/>
<path class="st0" d="M120.7,24.9c0,2.1-0.4,3.9-1.2,5.4c-0.8,1.5-1.9,2.6-3.3,3.4c-1.4,0.8-2.9,1.2-4.7,1.2c-1.7,0-3.3-0.4-4.7-1.2
	c-1.4-0.8-2.5-1.9-3.3-3.4c-0.8-1.5-1.2-3.3-1.2-5.4c0-2.1,0.4-3.9,1.2-5.4c0.8-1.5,1.9-2.6,3.3-3.4c1.4-0.8,2.9-1.2,4.7-1.2
	c1.7,0,3.3,0.4,4.7,1.2c1.4,0.8,2.5,1.9,3.3,3.4C120.3,20.9,120.7,22.8,120.7,24.9z M116.5,24.9c0-2-0.5-3.6-1.4-4.7
	c-0.9-1.1-2.1-1.6-3.6-1.6c-1.5,0-2.7,0.5-3.6,1.6c-0.9,1.1-1.4,2.7-1.4,4.7s0.5,3.6,1.4,4.7c0.9,1.1,2.1,1.6,3.6,1.6
	c1.5,0,2.7-0.5,3.6-1.6C116,28.5,116.5,26.9,116.5,24.9z"/>
<path class="st0" d="M126.2,15.2h5.1l5.4,13.1h0.2l5.4-13.1h5.1v19.4h-4V21.9h-0.2l-5.1,12.5h-2.7l-5.1-12.6h-0.2v12.7h-4V15.2z"/>
<path class="st0" d="M153.5,34.8c-1.4,0-2.6-0.4-3.5-1.1c-0.9-0.7-1.4-1.8-1.4-3.3c0-1.1,0.3-1.9,0.8-2.6c0.5-0.6,1.2-1.1,2-1.4
	c0.8-0.3,1.7-0.5,2.7-0.6c1.3-0.1,2.2-0.3,2.7-0.4c0.5-0.2,0.8-0.4,0.8-0.9v-0.1c0-0.6-0.2-1.1-0.6-1.4c-0.4-0.3-0.9-0.5-1.6-0.5
	c-0.7,0-1.3,0.2-1.8,0.5c-0.4,0.3-0.7,0.7-0.9,1.2l-3.8-0.3c0.3-1.3,1-2.4,2.1-3.1c1.1-0.8,2.6-1.2,4.3-1.2c1.1,0,2.1,0.2,3.1,0.5
	c1,0.3,1.7,0.9,2.3,1.6s0.9,1.7,0.9,2.8v9.9H158v-2h-0.1c-0.4,0.7-0.9,1.2-1.6,1.7C155.5,34.6,154.6,34.8,153.5,34.8z M154.7,32.1
	c0.9,0,1.6-0.3,2.2-0.8c0.6-0.5,0.9-1.2,0.9-1.9v-1.5c-0.2,0.1-0.4,0.2-0.8,0.3c-0.3,0.1-0.7,0.2-1.1,0.2c-0.4,0.1-0.7,0.1-1,0.2
	c-0.7,0.1-1.3,0.3-1.7,0.6c-0.4,0.3-0.6,0.7-0.6,1.3c0,0.6,0.2,1,0.6,1.3C153.6,31.9,154.1,32.1,154.7,32.1z"/>
<path class="st0" d="M163.4,34.6V15.2h4.1v10.4h0.2l4.7-5.5h4.7l-5.5,6.3l5.7,8.3h-4.8l-4-5.9l-1.1,1.3v4.6H163.4z"/>
<path class="st0" d="M183.3,34.9c-1.5,0-2.8-0.3-3.9-0.9c-1.1-0.6-1.9-1.5-2.5-2.6c-0.6-1.1-0.9-2.5-0.9-4c0-1.5,0.3-2.8,0.9-3.9
	c0.6-1.1,1.4-2,2.5-2.6c1.1-0.6,2.3-0.9,3.8-0.9c1.3,0,2.5,0.3,3.5,0.8c1,0.5,1.9,1.4,2.5,2.5c0.6,1.1,0.9,2.5,0.9,4.1v1.1h-10
	c0,1.1,0.3,1.9,0.9,2.6s1.4,0.9,2.4,0.9c0.7,0,1.3-0.2,1.8-0.4c0.5-0.3,0.9-0.7,1.1-1.3l3.8,0.3c-0.3,1.4-1,2.4-2.2,3.3
	C186.6,34.5,185.1,34.9,183.3,34.9z M180,25.8h6.2c0-0.9-0.3-1.6-0.9-2.2c-0.6-0.6-1.3-0.8-2.2-0.8c-0.9,0-1.7,0.3-2.2,0.9
	C180.4,24.3,180.1,25,180,25.8z"/>
<path class="st0" d="M191.1,34.6V20h4v2.5h0.2c0.3-0.9,0.7-1.6,1.3-2c0.6-0.5,1.4-0.7,2.2-0.7c0.5,0,0.9,0.1,1.3,0.2v3.6
	c-0.2-0.1-0.5-0.1-0.8-0.2c-0.3-0.1-0.6-0.1-0.9-0.1c-0.9,0-1.7,0.3-2.2,0.8c-0.6,0.6-0.9,1.3-0.9,2.2v8.2H191.1z"/>
</svg>
