<?xml version="1.0" encoding="utf-8"?>
<!-- Generator: Adobe Illustrator 25.2.3, SVG Export Plug-In . SVG Version: 6.00 Build 0)  -->
<svg version="1.1" id="Badges" xmlns="http://www.w3.org/2000/svg" xmlns:xlink="http://www.w3.org/1999/xlink" x="0px" y="0px"
	 viewBox="0 0 128 40" style="enable-background:new 0 0 128 40;" xml:space="preserve">
<style type="text/css">
	.st0{fill:#FFFFFF;}
	.st1{fill-rule:evenodd;clip-rule:evenodd;fill:#FFFFFF;}
	.st2{display:none;fill:#FFFFFF;}
</style>
<g>
	<path class="st0" d="M124,40H4c-2.2,0-4-1.8-4-4V4c0-2.2,1.8-4,4-4h120c2.2,0,4,1.8,4,4v32C128,38.2,126.2,40,124,40z"/>
	<polygon class="st1" points="114.3,32.3 114.3,32.3 114.2,32.3 114.2,32.3 114.2,32.2 114.2,32.2 114.3,32.2 114.3,32.2 
		114.2,32.2 114.2,32.2 114.2,32.3 114.2,32.3 	"/>
	<path class="st1" d="M114.3,32.3L114.3,32.3C114.3,32.2,114.3,32.2,114.3,32.3L114.3,32.3C114.3,32.2,114.3,32.2,114.3,32.3
		L114.3,32.3L114.3,32.3L114.3,32.3L114.3,32.3L114.3,32.3L114.3,32.3L114.3,32.3L114.3,32.3z M114.3,32.2L114.3,32.2L114.3,32.2
		L114.3,32.2L114.3,32.2L114.3,32.2L114.3,32.2L114.3,32.2z"/>
	<polygon class="st1" points="114.3,32.3 114.3,32.3 114.3,32.2 114.3,32.2 114.3,32.2 114.3,32.2 114.3,32.2 114.3,32.2 
		114.3,32.2 114.3,32.2 	"/>
	<path class="st1" d="M114.3,32.3L114.3,32.3L114.3,32.3L114.3,32.3L114.3,32.3L114.3,32.3L114.3,32.3L114.3,32.3L114.3,32.3
		L114.3,32.3z M114.3,32.2L114.3,32.2L114.3,32.2L114.3,32.2L114.3,32.2L114.3,32.2L114.3,32.2z"/>
	<polygon class="st1" points="114.3,32.2 114.3,32.2 114.3,32.2 114.3,32.2 114.3,32.3 114.3,32.3 	"/>
	<polygon class="st1" points="114.3,32.3 114.3,32.3 114.3,32.2 114.3,32.2 114.3,32.2 114.3,32.2 114.3,32.2 114.3,32.2 
		114.3,32.2 114.3,32.2 	"/>
	<path class="st1" d="M114.3,32.3L114.3,32.3C114.3,32.2,114.3,32.2,114.3,32.3L114.3,32.3L114.3,32.3L114.3,32.3L114.3,32.3
		L114.3,32.3z M114.3,32.3L114.3,32.3L114.3,32.3L114.3,32.3L114.3,32.3L114.3,32.3C114.3,32.2,114.3,32.2,114.3,32.3L114.3,32.3z"
		/>
	<path class="st1" d="M114.4,32.3L114.4,32.3C114.4,32.2,114.4,32.2,114.4,32.3C114.4,32.2,114.4,32.2,114.4,32.3L114.4,32.3
		C114.4,32.2,114.4,32.2,114.4,32.3L114.4,32.3L114.4,32.3L114.4,32.3L114.4,32.3L114.4,32.3z M114.4,32.2L114.4,32.2L114.4,32.2
		L114.4,32.2L114.4,32.2L114.4,32.2L114.4,32.2L114.4,32.2L114.4,32.2z M114.4,32.3L114.4,32.3L114.4,32.3L114.4,32.3L114.4,32.3
		L114.4,32.3C114.4,32.2,114.4,32.2,114.4,32.3L114.4,32.3z"/>
	<polygon class="st1" points="114.4,32.2 114.4,32.2 114.4,32.2 114.4,32.2 114.4,32.2 114.4,32.2 114.4,32.2 114.4,32.2 
		114.4,32.3 114.4,32.3 	"/>
	<polygon class="st1" points="114.4,32.3 114.4,32.3 114.4,32.2 114.4,32.2 	"/>
	<path class="st1" d="M114.4,32.3L114.4,32.3C114.4,32.2,114.4,32.2,114.4,32.3C114.4,32.2,114.4,32.2,114.4,32.3L114.4,32.3
		L114.4,32.3L114.4,32.3L114.4,32.3z M114.4,32.2L114.4,32.2C114.4,32.3,114.4,32.3,114.4,32.2C114.4,32.3,114.4,32.3,114.4,32.2
		L114.4,32.2L114.4,32.2L114.4,32.2L114.4,32.2z"/>
	<path class="st1" d="M114.4,32.3L114.4,32.3L114.4,32.3L114.4,32.3L114.4,32.3L114.4,32.3L114.4,32.3L114.4,32.3L114.4,32.3
		C114.4,32.2,114.4,32.2,114.4,32.3C114.4,32.2,114.4,32.2,114.4,32.3L114.4,32.3C114.4,32.2,114.4,32.2,114.4,32.3
		C114.4,32.2,114.4,32.2,114.4,32.3L114.4,32.3L114.4,32.3L114.4,32.3L114.4,32.3z"/>
	<path class="st1" d="M114.5,32.3L114.5,32.3C114.5,32.2,114.5,32.2,114.5,32.3C114.4,32.2,114.4,32.2,114.5,32.3L114.5,32.3
		C114.4,32.3,114.4,32.3,114.5,32.3L114.5,32.3L114.5,32.3z M114.5,32.2L114.5,32.2C114.5,32.3,114.5,32.3,114.5,32.2
		C114.5,32.3,114.4,32.3,114.5,32.2L114.5,32.2C114.4,32.2,114.5,32.2,114.5,32.2L114.5,32.2L114.5,32.2z"/>
	<polygon class="st1" points="114.5,32.3 114.5,32.2 114.5,32.2 114.5,32.2 114.5,32.2 114.5,32.2 114.5,32.3 114.5,32.3 
		114.5,32.2 114.5,32.2 114.5,32.3 114.5,32.3 114.5,32.2 114.5,32.2 	"/>
	<path class="st1" d="M114.5,32.3L114.5,32.3L114.5,32.3L114.5,32.3L114.5,32.3L114.5,32.3L114.5,32.3L114.5,32.3L114.5,32.3
		L114.5,32.3z M114.5,32.2L114.5,32.2L114.5,32.2L114.5,32.2L114.5,32.2L114.5,32.2L114.5,32.2z"/>
	<path class="st1" d="M114.5,32.3C114.5,32.2,114.5,32.2,114.5,32.3C114.5,32.2,114.5,32.2,114.5,32.3
		C114.5,32.2,114.5,32.2,114.5,32.3C114.5,32.2,114.5,32.2,114.5,32.3L114.5,32.3C114.5,32.2,114.5,32.2,114.5,32.3
		C114.5,32.2,114.5,32.2,114.5,32.3C114.5,32.2,114.5,32.2,114.5,32.3C114.5,32.2,114.5,32.2,114.5,32.3L114.5,32.3L114.5,32.3
		L114.5,32.3L114.5,32.3L114.5,32.3z"/>
	<polygon class="st1" points="114.6,32.2 114.5,32.2 114.5,32.2 114.6,32.2 114.6,32.3 114.6,32.3 	"/>
	<polygon class="st1" points="114.6,32.3 114.6,32.3 114.6,32.2 114.6,32.2 114.6,32.2 114.6,32.2 114.6,32.2 114.6,32.2 
		114.6,32.2 114.6,32.2 	"/>
	<path class="st1" d="M114.6,32.3L114.6,32.3C114.6,32.2,114.6,32.2,114.6,32.3L114.6,32.3C114.6,32.2,114.6,32.2,114.6,32.3
		L114.6,32.3L114.6,32.3L114.6,32.3L114.6,32.3L114.6,32.3L114.6,32.3L114.6,32.3L114.6,32.3z M114.6,32.2L114.6,32.2L114.6,32.2
		L114.6,32.2L114.6,32.2L114.6,32.2L114.6,32.2L114.6,32.2z"/>
	<path class="st2" d="M38.9,10.1c0-1.8,1.3-2.9,2.9-2.9c1.1,0,1.8,0.5,2.3,1.2l-0.8,0.5c-0.3-0.4-0.8-0.7-1.5-0.7
		c-1.1,0-1.9,0.8-1.9,2s0.8,2,1.9,2c0.6,0,1.1-0.3,1.3-0.5v-0.9h-1.6V9.9h2.7V12c-0.5,0.6-1.3,1-2.3,1C40.2,13,38.9,11.8,38.9,10.1z
		"/>
	<g>
		<path d="M38.9,12.9V7.1h2.1c0.3,0,0.5,0,0.8,0.1c0.2,0.1,0.5,0.2,0.6,0.4c0.2,0.2,0.3,0.4,0.4,0.6c0.1,0.2,0.2,0.5,0.2,0.7
			c0,0.3-0.1,0.5-0.2,0.8c-0.1,0.2-0.2,0.4-0.4,0.6c-0.2,0.2-0.4,0.3-0.6,0.4s-0.5,0.1-0.8,0.1h-1v2.2H38.9z M40.9,9.7
			c0.3,0,0.5-0.1,0.7-0.2s0.2-0.4,0.2-0.6c0-0.1,0-0.2-0.1-0.3c0-0.1-0.1-0.2-0.2-0.3c-0.1-0.1-0.2-0.1-0.3-0.2
			c-0.1,0-0.2-0.1-0.4-0.1h-1v1.6H40.9z"/>
		<path d="M43.7,7.1h1.1v4.8h2.5v1h-3.6V7.1z"/>
		<path d="M49.8,7.1h1.3l2.2,5.9H52l-0.5-1.4h-2.3l-0.5,1.4h-1.2L49.8,7.1z M51.2,10.5l-0.5-1.5l-0.2-0.7h-0.1l-0.2,0.7l-0.5,1.5
			H51.2z"/>
		<path d="M54.8,10.2l-2-3.1h1.3L55.3,9h0.1l1.1-1.9h1.3l-1.9,3.1v2.7h-1.1V10.2z"/>
		<path d="M62.9,13.1c-0.4,0-0.8-0.1-1.2-0.2c-0.4-0.2-0.7-0.4-1-0.7c-0.3-0.3-0.5-0.6-0.6-1c-0.2-0.4-0.2-0.8-0.2-1.2
			c0-0.4,0.1-0.8,0.2-1.2c0.2-0.4,0.4-0.7,0.6-1c0.3-0.3,0.6-0.5,1-0.7C62.1,7,62.5,7,62.9,7s0.8,0.1,1.2,0.2s0.7,0.4,1,0.7
			s0.5,0.6,0.6,1C65.9,9.2,66,9.6,66,10c0,0.4-0.1,0.8-0.2,1.2c-0.2,0.4-0.4,0.7-0.6,1s-0.6,0.5-1,0.7S63.4,13.1,62.9,13.1z
			 M62.9,12c0.3,0,0.5,0,0.8-0.1c0.2-0.1,0.4-0.2,0.6-0.4c0.2-0.2,0.3-0.4,0.4-0.6c0.1-0.2,0.2-0.5,0.2-0.8c0-0.3,0-0.6-0.2-0.8
			c-0.1-0.2-0.2-0.5-0.4-0.6c-0.2-0.2-0.4-0.3-0.6-0.4C63.5,8.1,63.2,8,62.9,8c-0.3,0-0.5,0-0.8,0.1c-0.2,0.1-0.4,0.2-0.6,0.4
			c-0.2,0.2-0.3,0.4-0.4,0.6C61,9.4,61,9.7,61,10c0,0.3,0.1,0.6,0.2,0.8c0.1,0.2,0.2,0.5,0.4,0.6c0.2,0.2,0.4,0.3,0.6,0.4
			C62.4,12,62.7,12,62.9,12z"/>
		<path d="M66.9,7.1h1.3l2.4,3.9h0.1l-0.1-1.1V7.1h1.1v5.9h-1.2L68,8.8h-0.1L68,9.9v3h-1.1V7.1z"/>
	</g>
	<g>
		<path d="M37.8,18.4h2.6l2,7.6l0.3,1.4h0.1l0.4-1.4l1.9-5.8h2.3l1.9,5.8l0.4,1.4h0.1l0.3-1.4l1.9-7.6h2.6l-3.4,13h-2.4l-2-6.3
			l-0.4-1.4h-0.1l-0.4,1.4l-2,6.3h-2.4L37.8,18.4z"/>
		<path d="M63.3,29.2c-0.4,0.7-1,1.3-1.7,1.8s-1.5,0.7-2.5,0.7c-0.7,0-1.3-0.1-1.9-0.4s-1.1-0.6-1.5-1c-0.4-0.4-0.8-0.9-1-1.5
			c-0.2-0.6-0.4-1.2-0.4-1.9c0-0.6,0.1-1.2,0.3-1.8c0.2-0.6,0.6-1.1,1-1.5c0.4-0.4,0.9-0.8,1.5-1c0.6-0.3,1.2-0.4,1.9-0.4
			c0.7,0,1.3,0.1,1.9,0.4c0.6,0.2,1,0.6,1.4,1c0.4,0.4,0.7,0.9,0.9,1.5c0.2,0.6,0.3,1.2,0.3,1.9c0,0.1,0,0.2,0,0.2
			c0,0.1,0,0.1,0,0.2c0,0.1,0,0.1,0,0.2h-6.7c0,0.4,0.1,0.7,0.3,0.9c0.2,0.3,0.3,0.5,0.6,0.7c0.2,0.2,0.5,0.3,0.7,0.4
			s0.5,0.1,0.8,0.1c0.5,0,1-0.1,1.4-0.4s0.6-0.6,0.8-0.9L63.3,29.2z M61.1,25.8c0-0.2-0.1-0.3-0.2-0.5c-0.1-0.2-0.2-0.4-0.4-0.5
			c-0.2-0.2-0.4-0.3-0.7-0.4c-0.3-0.1-0.6-0.2-0.9-0.2c-0.5,0-1,0.1-1.3,0.4s-0.7,0.7-0.8,1.2H61.1z"/>
		<path d="M65,18.4h2.4v3.9l-0.1,1.3h0.1c0.2-0.4,0.6-0.7,1-1c0.5-0.3,1-0.4,1.7-0.4c0.6,0,1.1,0.1,1.6,0.4s1,0.6,1.4,1
			c0.4,0.4,0.7,0.9,0.9,1.5c0.2,0.6,0.3,1.2,0.3,1.9s-0.1,1.3-0.3,1.9c-0.2,0.6-0.5,1.1-0.9,1.5c-0.4,0.4-0.8,0.7-1.4,1
			s-1.1,0.4-1.6,0.4c-0.7,0-1.2-0.1-1.7-0.4c-0.5-0.3-0.8-0.6-1-1h-0.1v1.1H65V18.4z M69.6,29.5c0.3,0,0.6-0.1,0.9-0.2
			c0.3-0.1,0.5-0.3,0.8-0.5c0.2-0.2,0.4-0.5,0.5-0.8c0.1-0.3,0.2-0.7,0.2-1.1c0-0.4-0.1-0.7-0.2-1.1c-0.1-0.3-0.3-0.6-0.5-0.8
			c-0.2-0.2-0.5-0.4-0.8-0.5c-0.3-0.1-0.6-0.2-0.9-0.2c-0.3,0-0.6,0.1-0.9,0.2s-0.5,0.3-0.8,0.5s-0.4,0.5-0.5,0.8s-0.2,0.7-0.2,1.1
			s0.1,0.8,0.2,1.1c0.1,0.3,0.3,0.6,0.5,0.8s0.5,0.4,0.8,0.5C69,29.4,69.3,29.5,69.6,29.5z"/>
		<path d="M83.4,18.4h2.8l4.9,13h-2.7l-1.1-3.1h-5l-1.1,3.1h-2.7L83.4,18.4z M86.5,26l-1.2-3.2l-0.5-1.6h-0.1l-0.5,1.6L83.1,26H86.5
			z"/>
		<path d="M92.3,22.5h2.2v1.1h0.1c0.2-0.4,0.6-0.7,1-1c0.5-0.3,1-0.4,1.7-0.4c0.6,0,1.1,0.1,1.6,0.4c0.5,0.2,1,0.6,1.4,1
			c0.4,0.4,0.7,0.9,0.9,1.5c0.2,0.6,0.3,1.2,0.3,1.9s-0.1,1.3-0.3,1.9c-0.2,0.6-0.5,1.1-0.9,1.5c-0.4,0.4-0.8,0.7-1.4,1
			c-0.5,0.2-1.1,0.4-1.6,0.4c-0.7,0-1.2-0.1-1.7-0.4c-0.5-0.3-0.8-0.6-1-1h-0.1l0.1,1.3v3.7h-2.4V22.5z M96.9,29.5
			c0.3,0,0.6-0.1,0.9-0.2s0.5-0.3,0.8-0.5s0.4-0.5,0.5-0.8c0.1-0.3,0.2-0.7,0.2-1.1c0-0.4-0.1-0.7-0.2-1.1c-0.1-0.3-0.3-0.6-0.5-0.8
			s-0.5-0.4-0.8-0.5s-0.6-0.2-0.9-0.2c-0.3,0-0.6,0.1-0.9,0.2c-0.3,0.1-0.5,0.3-0.8,0.5s-0.4,0.5-0.5,0.8c-0.1,0.3-0.2,0.7-0.2,1.1
			s0.1,0.8,0.2,1.1c0.1,0.3,0.3,0.6,0.5,0.8s0.5,0.4,0.8,0.5C96.3,29.4,96.6,29.5,96.9,29.5z"/>
		<path d="M103,22.5h2.2v1.1h0.1c0.2-0.4,0.6-0.7,1-1c0.5-0.3,1-0.4,1.7-0.4c0.6,0,1.1,0.1,1.6,0.4c0.5,0.2,1,0.6,1.4,1
			c0.4,0.4,0.7,0.9,0.9,1.5c0.2,0.6,0.3,1.2,0.3,1.9s-0.1,1.3-0.3,1.9c-0.2,0.6-0.5,1.1-0.9,1.5c-0.4,0.4-0.8,0.7-1.4,1
			c-0.5,0.2-1.1,0.4-1.6,0.4c-0.7,0-1.2-0.1-1.7-0.4c-0.5-0.3-0.8-0.6-1-1h-0.1l0.1,1.3v3.7H103V22.5z M107.6,29.5
			c0.3,0,0.6-0.1,0.9-0.2s0.5-0.3,0.8-0.5s0.4-0.5,0.5-0.8c0.1-0.3,0.2-0.7,0.2-1.1c0-0.4-0.1-0.7-0.2-1.1c-0.1-0.3-0.3-0.6-0.5-0.8
			s-0.5-0.4-0.8-0.5s-0.6-0.2-0.9-0.2c-0.3,0-0.6,0.1-0.9,0.2c-0.3,0.1-0.5,0.3-0.8,0.5s-0.4,0.5-0.5,0.8c-0.1,0.3-0.2,0.7-0.2,1.1
			s0.1,0.8,0.2,1.1c0.1,0.3,0.3,0.6,0.5,0.8s0.5,0.4,0.8,0.5C107,29.4,107.3,29.5,107.6,29.5z"/>
	</g>
</g>
<g>
	<g>
		<path d="M19.5,8.1C13.2,8.1,8,13.3,8,19.6c0,6.4,5.2,11.5,11.5,11.5c6.4,0,11.5-5.2,11.5-11.5C31.1,13.3,25.9,8.1,19.5,8.1z
			 M15.4,27.5c0.3,0.6,0.5,1.1,0.8,1.5c-1.2-0.4-2.2-1-3.1-1.8c0.5-0.5,1.1-0.9,1.8-1.2C15,26.6,15.2,27.1,15.4,27.5z M16.3,25.5
			c1-0.3,2.1-0.5,3.2-0.5c1.1,0,2.2,0.2,3.2,0.5c-0.8,2.6-2,4.1-3.2,4.1C18.4,29.6,17.1,28,16.3,25.5z M14.9,13.2
			c-0.6-0.3-1.2-0.7-1.8-1.2c0.9-0.8,2-1.4,3.1-1.8c-0.3,0.4-0.6,0.9-0.8,1.5C15.2,12.2,15,12.7,14.9,13.2z M19.5,9.6
			c1.2,0,2.4,1.6,3.2,4.1c-1,0.3-2.1,0.5-3.2,0.5c-1.1,0-2.2-0.2-3.2-0.5C17.1,11.2,18.4,9.6,19.5,9.6z M23.6,11.7
			c-0.3-0.6-0.5-1.1-0.8-1.5c1.2,0.4,2.2,1,3.1,1.8c-0.5,0.5-1.1,0.9-1.8,1.2C24,12.7,23.8,12.2,23.6,11.7z M19.5,15.9
			c1.2,0,2.5-0.2,3.6-0.6c0.2,1.1,0.4,2.3,0.4,3.5h-8c0-1.3,0.2-2.5,0.4-3.5C17.1,15.7,18.3,15.9,19.5,15.9z M23.5,20.4
			c0,1.3-0.2,2.5-0.4,3.5c-1.1-0.4-2.4-0.6-3.6-0.6c-1.2,0-2.5,0.2-3.6,0.6c-0.2-1.1-0.4-2.3-0.4-3.5H23.5z M23.6,27.5
			c0.2-0.5,0.4-1,0.6-1.5c0.6,0.3,1.2,0.7,1.8,1.2C25,28,24,28.6,22.8,29C23.1,28.6,23.4,28.1,23.6,27.5z M24.6,24.5
			c0.3-1.3,0.5-2.7,0.5-4.1h4.4c-0.2,2.2-1.1,4.2-2.4,5.8C26.3,25.5,25.5,25,24.6,24.5z M25.1,18.8c0-1.5-0.2-2.9-0.5-4.1
			c0.9-0.4,1.7-1,2.5-1.6c1.4,1.6,2.3,3.6,2.4,5.8H25.1z M12,13.1c0.8,0.7,1.6,1.2,2.5,1.6C14.2,16,14,17.4,14,18.8H9.6
			C9.8,16.6,10.6,14.6,12,13.1z M9.6,20.4H14c0,1.5,0.2,2.9,0.5,4.1c-0.9,0.4-1.7,1-2.5,1.6C10.6,24.6,9.8,22.6,9.6,20.4z"/>
		<path d="M25.3,22.4H13.8c-1.1,0-2-0.9-2-2v-1.5c0-1.1,0.9-2,2-2h11.5c1.1,0,2,0.9,2,2v1.5C27.3,21.5,26.4,22.4,25.3,22.4z"/>
		<g>
			<path class="st0" d="M12.7,18.3h0.8l0.5,1.7h0l0.5-1.7h0.8l0.6,1.7h0l0.5-1.7h0.8l-0.9,2.8h-0.8L15,19.4h0l-0.6,1.7h-0.8
				L12.7,18.3z"/>
			<path class="st0" d="M17.4,18.3h0.8l0.5,1.7h0l0.5-1.7H20l0.6,1.7h0l0.5-1.7h0.8L21,21.1h-0.8l-0.6-1.7h0l-0.6,1.7h-0.8
				L17.4,18.3z"/>
			<path class="st0" d="M22,18.3h0.8l0.5,1.7h0l0.5-1.7h0.8l0.6,1.7h0l0.5-1.7h0.8l-0.9,2.8h-0.8l-0.6-1.7h0l-0.6,1.7h-0.8L22,18.3z
				"/>
		</g>
	</g>
	<g>
		<path d="M27.5,22.9l2.4,7.1c0.1,0.3,0.5,0.4,0.7,0.1l0.8-1.5c0.1-0.2,0.4-0.3,0.6-0.1l2,2c0.2,0.2,0.4,0.2,0.5,0l0.5-0.5l0.5-0.5
			c0.2-0.2,0.2-0.4,0-0.5l-2-2c-0.2-0.2-0.1-0.5,0.1-0.6l1.5-0.8c0.3-0.2,0.3-0.6-0.1-0.7l-7.1-2.4C27.6,22.3,27.4,22.6,27.5,22.9z"
			/>
		<path d="M27.8,22.4c0,0,0.1,0,0.1,0l7.1,2.4c0.3,0.1,0.4,0.5,0.1,0.7l-1.5,0.8c-0.2,0.1-0.3,0.4-0.1,0.6l2,2
			c0.2,0.2,0.2,0.4,0,0.5L35,29.9l-0.5,0.5c-0.1,0.1-0.2,0.1-0.3,0.1s-0.2,0-0.3-0.1l-2-2c-0.1-0.1-0.2-0.1-0.3-0.1
			c-0.1,0-0.3,0.1-0.3,0.2L30.5,30c-0.1,0.1-0.2,0.2-0.3,0.2c-0.2,0-0.3-0.1-0.4-0.3l-2.4-7.1C27.4,22.6,27.6,22.4,27.8,22.4
			 M27.8,21.6c-0.4,0-0.7,0.2-0.9,0.5c-0.2,0.3-0.3,0.7-0.2,1l2.4,7.1c0.2,0.5,0.6,0.8,1.1,0.8c0.4,0,0.8-0.2,1-0.6l0.6-1l1.6,1.6
			c0.2,0.2,0.5,0.3,0.8,0.3s0.6-0.1,0.8-0.3l0.5-0.5l0.5-0.5c0.5-0.5,0.5-1.2,0-1.6l-1.6-1.6l1-0.6c0.4-0.2,0.6-0.7,0.6-1.1
			c0-0.5-0.4-0.9-0.8-1l-7.1-2.4C28.1,21.6,27.9,21.6,27.8,21.6L27.8,21.6z"/>
	</g>
</g>
</svg>
