<svg width="50" height="50" viewBox="0 0 50 50" fill="none" xmlns="http://www.w3.org/2000/svg">
<path d="M10.3516 50H39.6484C42.0717 50 44.043 48.0287 44.043 45.6055V14.6484H33.7891C31.3658 14.6484 29.3945 12.6771 29.3945 10.2539V0H10.3516C7.92832 0 5.95703 1.97129 5.95703 4.39453V45.6055C5.95703 48.0287 7.92832 50 10.3516 50ZM16.2109 20.6055H33.7891C34.5987 20.6055 35.2539 21.2606 35.2539 22.0703C35.2539 22.88 34.5987 23.5352 33.7891 23.5352H16.2109C15.4013 23.5352 14.7461 22.88 14.7461 22.0703C14.7461 21.2606 15.4013 20.6055 16.2109 20.6055ZM16.2109 26.4648H33.7891C34.5987 26.4648 35.2539 27.12 35.2539 27.9297C35.2539 28.7394 34.5987 29.3945 33.7891 29.3945H16.2109C15.4013 29.3945 14.7461 28.7394 14.7461 27.9297C14.7461 27.12 15.4013 26.4648 16.2109 26.4648ZM16.2109 32.3242H33.7891C34.5987 32.3242 35.2539 32.9794 35.2539 33.7891C35.2539 34.5987 34.5987 35.2539 33.7891 35.2539H16.2109C15.4013 35.2539 14.7461 34.5987 14.7461 33.7891C14.7461 32.9794 15.4013 32.3242 16.2109 32.3242ZM16.2109 38.1836H27.9297C28.7394 38.1836 29.3945 38.8388 29.3945 39.6484C29.3945 40.4581 28.7394 41.1133 27.9297 41.1133H16.2109C15.4013 41.1133 14.7461 40.4581 14.7461 39.6484C14.7461 38.8388 15.4013 38.1836 16.2109 38.1836Z" fill="#FDDC7A"/>
<path d="M33.7891 11.7188H43.1847L32.3242 0.858307V10.2539C32.3242 11.0621 32.9809 11.7188 33.7891 11.7188Z" fill="#FDDC7A"/>
</svg>
